<svg xmlns="http://www.w3.org/2000/svg" viewBox="0 0 64 64" width="64" height="64">
  <rect width="64" height="64" rx="16" fill="#0d0b18"/>
  <!-- Яркий золотой ободок -->
  <rect x="2" y="2" width="60" height="60" rx="14" fill="none" stroke="#d4af37" stroke-width="3"/>
  <!-- Крупная контрастная мордочка котика -->
  <path d="M 16 26 L 23 12 L 31 22 L 33 22 L 41 12 L 48 26 C 50 34, 46 48, 32 48 C 18 48, 14 34, 16 26 Z" fill="#ffd700" stroke="#d4af37" stroke-width="2"/>
  <!-- Розовые внутренние ушки -->
  <polygon points="20,24 23,16 27,22" fill="#ff9999"/>
  <polygon points="37,22 41,16 44,24" fill="#ff9999"/>
  <!-- Закрытые довольные глазки -->
  <path d="M 22 32 Q 26 36 30 32" fill="none" stroke="#110d22" stroke-width="3.5" stroke-linecap="round"/>
  <path d="M 34 32 Q 38 36 42 32" fill="none" stroke="#110d22" stroke-width="3.5" stroke-linecap="round"/>
  <!-- Носик и ротик -->
  <polygon points="30,37 34,37 32,40" fill="#ff9999"/>
  <!-- Усики -->
  <line x1="12" y1="36" x2="22" y2="37" stroke="#ffd700" stroke-width="2" stroke-linecap="round"/>
  <line x1="52" y1="36" x2="42" y2="37" stroke="#ffd700" stroke-width="2" stroke-linecap="round"/>
</svg>
